<?xml version="1.0" encoding="UTF-8"?><svg id="Layer_6" xmlns="http://www.w3.org/2000/svg" viewBox="0 0 64.82 64.74"><defs><style>.cls-1{fill:#595959;}</style></defs><path class="cls-1" d="M37.89,28.63c0-3.31-2.68-5.99-5.99-5.99s-5.99,2.68-5.99,5.99c0,2.25,1.24,4.2,3.07,5.23l.12-3.97c0-1.63,1.32-2.95,2.95-2.95h.17c1.28,0,2.32,1.04,2.32,2.32v4.75c1.98-.97,3.36-3.01,3.36-5.37Z"/><path class="cls-1" d="M34.54,29.26c0-1.28-1.04-2.32-2.32-2.32h-.17c-1.63,0-2.95,1.32-2.95,2.95l-.12,3.97-.28,8.76c-.06.27-.1,6.36-.1,6.36-.51-.52-1.09-1.13-1.6-1.7-1.2-1.34-3.41-2.24-4.88-2.41-.77-.09-1.36.02-1.76.31-.13.1-.25.2-.36.32-.76.75-1.33,1.95-.8,2.83.23.39.62.64,1.04.91.55.36,1.48.75,2.19,1.64,1.17,1.5,3.89,4.86,5.56,6.65.35.22,1.08.95,1.43,1.13,1.05.67,1.91,1.31,2.21,1.65.23.27,1.61.97,1.61.97,1.11.71,3.14,1.37,5.49,1.37s4.46.14,6.04-1.24h.08l.04-.1c1.6-1.46,2.59-3.49,2.59-5.73v-10.72c0-.53-.12-2.29-1.6-2.82-.71-.25-1.38-.16-1.96.09h-.13s-.04,0-.04,0c-.26-.97-.9-1.59-1.85-1.76-1.15-.2-1.95.14-2.42.49-.48-1.02-1.43-1.56-2.72-1.45-.97.08-1.69.56-2.21,1.18v-11.34Z"/><path class="cls-1" d="M45.27,38.58l1.19,1.32c.23.26.64.24.84-.04,2.29-3.18,3.56-7.01,3.56-11.04,0-10.45-8.51-18.96-18.96-18.96-.72,0-1.44.04-2.16.12-8.72.97-15.74,8.01-16.68,16.74-.51,4.75.74,9.39,3.44,13.13.2.28.61.29.85.04l1.19-1.32c.17-.19.18-.46.04-.67-1.9-2.78-2.9-6.1-2.8-9.56.24-8.38,6.99-15.26,15.36-15.65,9.26-.46,16.91,6.97,16.91,16.12,0,3.28-1,6.43-2.81,9.08-.14.21-.13.48.04.67Z"/><path class="cls-1" d="M39.94,32.65l1.26,1.4c.26.29.72.22.9-.12.79-1.57,1.21-3.3,1.21-5.1,0-5.37-3.81-10.07-9.07-11.17-1.53-.32-3.14-.32-4.68,0-5.25,1.1-9.07,5.8-9.07,11.17,0,1.8.42,3.53,1.21,5.1.18.34.64.41.9.12l1.26-1.4c.14-.16.17-.38.09-.57-.42-1.03-.65-2.13-.65-3.25,0-3.59,2.27-6.84,5.65-8.07,1.89-.69,4-.69,5.88,0,3.38,1.24,5.65,4.48,5.65,8.07,0,1.12-.22,2.22-.64,3.25-.08.2-.05.42.09.57Z"/></svg>