<?xml version="1.0" encoding="UTF-8"?><svg id="Layer_5" xmlns="http://www.w3.org/2000/svg" viewBox="0 0 64.82 64.74"><defs><style>.cls-1{fill:#595959;fill-rule:evenodd;}</style></defs><path class="cls-1" d="M31.56,16.2c-6.82.5-11.94,5.86-11.94,12.66v17.51c0,7.07,5.84,12.66,12.91,12.66h0c7.07,0,12.68-5.59,12.68-12.66v-17.51c0-7.07-5.36-12.66-12.43-12.89.97-.23,1.94-1.24,2.91-2.45.97-1.71.5-3.15-1.94-5.13-1.96-1.94-1.96-3.61-1.46-4.12.49-.74,2.43-.97,5.11,0,.25.23.49,0,.74-.23.23-.27.23-.5,0-.5-2.68-1.2-5.13-1.2-6.35.23-1.46,1.71-.95,3.69,1.22,5.36,2.68,2.21,2.19,3.65,1.71,4.15,0,0-.49,1.2-2.68,1.71l-.49,1.2ZM34.24,24.48c0,.97-.72,1.71-1.71,1.71h0c-.97,0-1.69-.74-1.69-1.71v-5.83c0-.97.72-1.71,1.69-1.71h0c.99,0,1.71.74,1.71,1.71v5.83Z"/></svg>