<?xml version="1.0" encoding="UTF-8"?><svg id="Layer_4" xmlns="http://www.w3.org/2000/svg" viewBox="0 0 64.82 64.74"><defs><style>.cls-1{fill:#595959;fill-rule:evenodd;}</style></defs><path class="cls-1" d="M43.59,31.73c0,3.21-.75,6.22-1.98,9.2-.24.75-.99,1.23-1.74,1.23-.28,0-.52,0-.75-.24-.99-.24-1.51-1.51-1.23-2.5.99-2.5,1.47-4.96,1.47-7.69s-.48-5.23-1.47-7.73c-.28-.95.24-2.22,1.23-2.46.99-.52,2.26,0,2.5.99,1.23,2.97,1.98,6.23,1.98,9.2h0ZM53.78,31.73c0,5.71-1.47,11.66-4.48,16.89-.48.48-.99.99-1.75.99-.24,0-.71,0-.99-.24-.99-.52-1.23-1.98-.75-2.74,2.5-4.48,4.01-9.71,4.01-14.91s-1.51-10.43-4.01-14.91c-.48-.99-.24-2.26.75-2.74.99-.48,2.26-.24,2.74.75,3.01,5.19,4.48,11.18,4.48,16.89h0ZM64.01,31.73c0,8.68-2.5,16.89-7.22,24.11-.52.75-1.03.99-1.74.99-.52,0-.75,0-1.27-.24-.99-.75-1.23-1.75-.48-2.74,4.48-6.7,6.7-14.43,6.7-22.12s-2.22-15.42-6.7-22.13c-.52-.75-.52-2.22.75-2.74.71-.48,1.98-.24,2.74.52,4.72,7.45,7.22,15.66,7.22,24.35h0ZM16.23,45.88l11.18,9.95c.52.48.75.75,1.51.75.24,0,.48-.28.71-.28.75-.48,1.27-1.23,1.27-1.98V10.87c0-1.03-.52-1.75-1.27-2.02-.71-.24-1.71-.24-2.46.51l-10.23,11.18H3.03c-1.23,0-2.22.99-2.22,2.22v21.13c0,.99.99,1.98,2.22,1.98h13.2Z"/></svg>