<?xml version="1.0" encoding="UTF-8"?><svg id="Layer_3" xmlns="http://www.w3.org/2000/svg" viewBox="0 0 100 100"><defs><style>.cls-1{fill:#595959;fill-rule:evenodd;}</style></defs><path class="cls-1" d="M50,83.02c-17.87,0-32.41-14.51-32.41-32.37s14.54-32.37,32.41-32.37,32.41,14.51,32.41,32.37-14.54,32.37-32.41,32.37h0ZM62.58,41.16l-15.38-15.05v18.97l-6.7-6.99-2.8,3.07,9.51,9.48-9.51,9.22,2.8,2.8,6.7-6.72v19.54l15.38-15.36-9.79-9.48,9.79-9.48ZM51.38,35.87h0l5.32,5.3-5.32,5.3v-10.6ZM56.7,60.13h0l-5.32,5.3v-10.6l5.32,5.3Z"/></svg>